<svg width="126" height="93" viewBox="0 0 126 93" fill="none" xmlns="http://www.w3.org/2000/svg">
<g clip-path="url(#clip0_2190_407)">
<path d="M109.247 57.1034C108.723 55.6064 107.375 54.692 105.947 54.6404L105.211 50.1974C105.903 49.9293 106.526 49.4136 106.817 48.4632C107.669 45.6908 105.617 43.807 104.152 42.951C102.687 42.0951 102.138 41.2718 102.138 41.2718L102.005 40.7046C101.864 40.1065 101.429 39.651 100.885 39.4482C101.062 39.1508 101.126 38.8053 101.038 38.4667C100.944 38.1075 100.697 37.8222 100.37 37.6452C98.8495 31.9096 91.8921 6.04718 87.9166 -2.34216C85.6806 -7.05849 82.973 -12.44 79.1356 -16.6046C74.5675 -21.5564 69.4235 -23.4092 63.0992 -23.6498C56.8809 -23.6636 51.6308 -21.5564 47.0643 -16.6029C43.227 -12.4383 40.5194 -7.05849 38.2833 -2.34044C34.3062 6.0489 27.3504 31.9113 25.83 37.6469C25.5016 37.8222 25.2541 38.1075 25.1615 38.4685C25.0739 38.8071 25.1379 39.1525 25.3147 39.4499C24.7709 39.651 24.3364 40.1082 24.195 40.7063L24.062 41.2735C24.062 41.2735 23.5131 42.0968 22.0482 42.9528C20.5833 43.8087 18.5307 45.6908 19.3827 48.4649C19.674 49.4154 20.297 49.931 20.989 50.1991L20.2583 54.6146C18.8725 54.704 17.581 55.6029 17.0641 57.0553C14.4694 64.3498 9.59142 80.4599 10.2599 96.8501C11.1658 119.033 22.9372 117.39 22.9372 117.39H103.436C103.436 117.39 115.044 119.033 115.938 96.8501C116.597 80.4977 111.808 64.422 109.247 57.1034ZM105.128 46.2734C105.543 47.2652 105.351 47.9234 104.896 48.2999L104.839 47.9561C104.765 47.5075 104.335 47.205 103.879 47.2772C103.423 47.3494 103.113 47.7722 103.187 48.2191L103.259 48.6556C103.243 48.6539 103.227 48.6505 103.211 48.6488L102.131 44.8211C102.833 44.7575 104.502 44.7764 105.128 46.2734ZM21.0699 46.2734C21.6962 44.7764 23.3649 44.7575 24.067 44.8211L22.9877 48.6488C22.9709 48.6522 22.9557 48.6539 22.9389 48.6556L23.0113 48.2191C23.0854 47.7705 22.7756 47.3494 22.3192 47.2772C21.8629 47.205 21.4336 47.5092 21.3595 47.9561L21.3022 48.2999C20.8476 47.9234 20.6557 47.2652 21.0699 46.2734ZM98.8731 58.2361C94.4532 60.981 87.5934 66.139 63.84 66.0445V66.0411C63.7137 66.0411 63.5925 66.0411 63.4679 66.0428C63.345 66.0428 63.2238 66.0428 63.1008 66.0411V66.0445C39.0074 66.139 32.0482 60.981 27.5676 58.2361C25.6835 57.0828 23.8178 55.9828 22.2805 55.0908C22.1576 55.0203 22.033 54.9567 21.9067 54.9017L22.6425 50.4586C23.3565 50.4483 23.897 50.3126 23.897 50.3126C23.897 50.3126 25.0672 50.0547 24.8837 48.0953L25.7155 45.1493C25.9344 45.1133 26.1381 45.0325 26.3267 44.9242C26.3957 45.1184 26.5388 45.2851 26.7426 45.3831C27.1501 45.5773 27.6401 45.4106 27.8371 45.0118L28.3708 43.9342C28.5678 43.5337 28.3994 43.0524 27.992 42.8582C27.8 42.7671 27.5895 42.7585 27.3993 42.8135L27.7074 41.5038C27.8219 41.0174 27.7192 40.5327 27.4633 40.1443C27.8657 39.981 28.1772 39.6647 28.2849 39.2505C28.3826 38.8741 28.2934 38.4891 28.0694 38.1728C29.5899 32.4562 36.5372 6.6986 40.3712 -1.38653C45.0657 -11.2901 51.0785 -21.8228 63.0604 -21.3931H63.1446C75.1248 -21.8193 81.1394 -11.2918 85.8338 -1.38653C89.6661 6.69688 96.6135 32.4545 98.1356 38.1728C97.9134 38.4891 97.8224 38.8741 97.9201 39.2505C98.0278 39.6647 98.3394 39.981 98.7418 40.1443C98.4858 40.5327 98.3831 41.0174 98.4976 41.5038L98.8058 42.8135C98.6155 42.7585 98.405 42.7671 98.2131 42.8582C97.8056 43.0524 97.6355 43.5337 97.8342 43.9342L98.368 45.0118C98.565 45.4123 99.0567 45.5773 99.4624 45.3831C99.6645 45.2868 99.8093 45.1184 99.8783 44.9242C100.065 45.0325 100.271 45.1133 100.49 45.1493L101.321 48.0953C101.138 50.0547 102.308 50.3126 102.308 50.3126C102.308 50.3126 102.849 50.4483 103.562 50.4586L104.31 54.9808C104.209 55.0289 104.11 55.0787 104.012 55.1372C102.512 56.0206 100.702 57.1034 98.8765 58.2361H98.8731Z" fill="#B79C85" fill-opacity="0.5"/>
</g>
<defs>
<clipPath id="clip0_2190_407">
<rect width="126" height="93" fill="white"/>
</clipPath>
</defs>
</svg>
