<svg width="95" height="12" viewBox="0 0 95 12" fill="none" xmlns="http://www.w3.org/2000/svg">
<g clip-path="url(#clip0_2190_411)">
<path d="M34.8952 2.04092C32.994 0.88494 30.4591 0.24707 27.7538 0.24707C25.0486 0.24707 22.5111 0.88494 20.6099 2.04092C19.2197 2.89748 18.4207 4.24612 18.4207 5.74056C18.4207 7.235 19.2172 8.58364 20.6099 9.44281C22.5061 10.6014 25.0436 11.2367 27.7538 11.2367C30.4641 11.2367 32.9965 10.5988 34.8952 9.44281C36.2854 8.58624 37.0845 7.2376 37.0845 5.74056C37.0845 4.24352 36.2854 2.89488 34.8952 2.04092ZM27.7513 10.8279C26.0205 10.8279 23.0923 9.75524 23.0923 5.74056C23.0923 2.22837 25.4318 0.655828 27.7513 0.655828C30.8624 0.655828 32.7185 2.55642 32.7185 5.74056C32.7185 9.16423 31.0928 10.8279 27.7513 10.8279Z" fill="black"/>
<path d="M95.0002 0.814763V0.406006H87.2777V0.814763H88.9584V5.26944H82.313V0.81216L83.9963 0.814763V0.439852L83.9938 0.406006H76.2762V0.814763H77.957V10.6796H76.2762V11.0884H83.9963V10.6796H82.313V5.6782H88.9584V10.6796H87.2777V11.0884H94.9676L95.0002 11.0858V10.6796H93.3144V0.814763H95.0002Z" fill="black"/>
<path d="M46.6643 0.257485L46.6543 0.24707H46.4213L38.2254 10.6795H36.3743V11.0883H41.0033V10.6795H38.7364L40.8029 8.06553H48.1973L50.5043 10.6795H48.295V11.0883H57.9914V10.6795H55.8447L46.6643 0.257485ZM41.1085 7.65678L44.2346 3.65252L47.8316 7.65678H41.1085Z" fill="black"/>
<path d="M13.411 1.48416C13.3258 1.42428 12.915 1.1457 12.2362 0.869725C11.5323 0.585938 10.3901 0.244873 8.93478 0.244873C6.59773 0.244873 4.43351 0.708305 2.84041 1.54925C0.98179 2.53079 -0.00012207 3.98097 -0.00012207 5.74097C-0.00012207 9.34428 3.27375 11.2475 9.47082 11.2475C11.0088 11.2475 12.3414 10.8361 13.436 10.0238L15.3297 11.0861L15.6328 11.0913V6.95162H15.3222L15.3147 6.97505C15.3122 6.98546 14.9991 7.95138 14.1374 8.90428C13.3434 9.78428 11.9031 10.8309 9.561 10.8309C7.98042 10.8309 6.69792 10.2269 5.85378 9.08132C5.18999 8.1831 4.80674 6.96984 4.80674 5.75138C4.80423 2.43967 7.254 0.656234 9.55849 0.656234C11.1215 0.656234 12.5368 1.16913 13.654 2.13765C14.5883 2.94736 15.1218 3.90026 15.3122 4.5199L15.3197 4.54333H15.6328V0.406293H15.3448L13.411 1.48677V1.48416Z" fill="black"/>
<path d="M71.1091 1.4838C71.0239 1.42392 70.6131 1.14534 69.9343 0.869359C69.2304 0.585572 68.0882 0.244507 66.6328 0.244507C64.2958 0.244507 62.1316 0.707939 60.5385 1.54889C58.6798 2.53042 57.6954 3.978 57.6954 5.738C57.6954 9.34131 60.9718 11.2445 67.1664 11.2445C68.7044 11.2445 70.037 10.8331 71.1291 10.0208L73.0228 11.0831L73.3259 11.0883V6.94865H73.0153L73.0078 6.97208C73.0078 6.97208 72.6946 7.94841 71.8305 8.90131C71.0364 9.78131 69.5961 10.8279 67.254 10.8279C65.676 10.8279 64.391 10.2239 63.5468 9.07835C62.883 8.18013 62.4998 6.96427 62.4998 5.74841C62.4998 2.4393 64.9496 0.655868 67.254 0.655868C68.8171 0.655868 70.2323 1.16877 71.3495 2.13729C72.2838 2.94699 72.8174 3.89989 73.0078 4.51954L73.0153 4.54297H73.3284V0.405927H73.0403L71.1091 1.4864V1.4838Z" fill="black"/>
</g>
<defs>
<clipPath id="clip0_2190_411">
<rect width="95" height="11" fill="white" transform="translate(-0.00012207 0.24707)"/>
</clipPath>
</defs>
</svg>
