<svg width="10" height="13" viewBox="0 0 10 13" fill="none" xmlns="http://www.w3.org/2000/svg">
<path d="M9.36174 7.44182C9.31225 7.30386 9.18477 7.21959 9.04982 7.21484L8.98027 6.80539C9.04568 6.78068 9.10456 6.73317 9.1321 6.64557C9.21262 6.39008 9.01863 6.21649 8.88017 6.13761C8.74171 6.05872 8.68983 5.98285 8.68983 5.98285L8.67726 5.93058C8.66389 5.87546 8.62283 5.83349 8.57143 5.8148C8.58814 5.7874 8.59418 5.75556 8.58591 5.72436C8.577 5.69125 8.5536 5.66496 8.52273 5.64864C8.37902 5.12008 7.72143 2.73673 7.34569 1.96361C7.13434 1.52898 6.87843 1.03305 6.51574 0.649262C6.08398 0.19293 5.59779 0.0221813 5.00004 6.15891e-06C4.41231 -0.00126099 3.91609 0.19293 3.48449 0.64942C3.1218 1.03321 2.86589 1.52898 2.65455 1.96377C2.27864 2.73689 1.62121 5.12024 1.4775 5.6488C1.44647 5.66496 1.42308 5.69125 1.41432 5.72451C1.40605 5.75572 1.4121 5.78755 1.42881 5.81496C1.3774 5.83349 1.33634 5.87562 1.32297 5.93074L1.3104 5.98301C1.3104 5.98301 1.25852 6.05888 1.12006 6.13776C0.981607 6.21664 0.787608 6.39008 0.868136 6.64573C0.895668 6.73332 0.954552 6.78084 1.01996 6.80555L0.950892 7.21247C0.819915 7.2207 0.69785 7.30354 0.648992 7.43738C0.403749 8.10961 -0.0572966 9.59423 0.00588427 11.1047C0.0915047 13.1489 1.20409 12.9975 1.20409 12.9975H8.81253C8.81253 12.9975 9.90968 13.1489 9.99419 11.1047C10.0564 9.59772 9.6038 8.11626 9.36174 7.44182ZM8.97247 6.44378C9.01162 6.53517 8.99348 6.59584 8.95051 6.63053L8.9451 6.59885C8.9381 6.55751 8.89752 6.52963 8.85439 6.53628C8.81126 6.54293 8.78198 6.5819 8.78898 6.62308L8.79582 6.66331C8.79423 6.66316 8.7928 6.66284 8.79121 6.66268L8.68919 6.30994C8.75556 6.30408 8.91327 6.30582 8.97247 6.44378ZM1.0276 6.44378C1.0868 6.30582 1.24452 6.30408 1.31088 6.30994L1.20887 6.66268C1.20728 6.663 1.20584 6.66316 1.20425 6.66331L1.21109 6.62308C1.2181 6.58174 1.18881 6.54293 1.14569 6.53628C1.10256 6.52963 1.06198 6.55767 1.05497 6.59885L1.04956 6.63053C1.00659 6.59584 0.98845 6.53517 1.0276 6.44378ZM8.38125 7.5462C7.96349 7.79916 7.31513 8.27449 5.07006 8.26578V8.26547C5.05812 8.26547 5.04667 8.26547 5.03489 8.26562C5.02327 8.26562 5.01181 8.26562 5.0002 8.26547V8.26578C2.72298 8.27449 2.06523 7.79916 1.64174 7.5462C1.46366 7.43992 1.28733 7.33855 1.14203 7.25634C1.13041 7.24985 1.11863 7.24399 1.1067 7.23892L1.17624 6.82947C1.24372 6.82852 1.29481 6.81601 1.29481 6.81601C1.29481 6.81601 1.40541 6.79225 1.38806 6.61168L1.46668 6.34019C1.48737 6.33686 1.50663 6.32942 1.52445 6.31944C1.53098 6.33734 1.54451 6.3527 1.56376 6.36173C1.60228 6.37963 1.64859 6.36427 1.66721 6.32752L1.71766 6.22821C1.73628 6.1913 1.72036 6.14695 1.68185 6.12905C1.66371 6.12066 1.64381 6.11986 1.62583 6.12493L1.65495 6.00424C1.66577 5.95941 1.65607 5.91475 1.63188 5.87895C1.66991 5.8639 1.69935 5.83476 1.70954 5.79658C1.71877 5.7619 1.71034 5.72642 1.68917 5.69727C1.83288 5.17045 2.48951 2.79676 2.85189 2.05168C3.29559 1.13902 3.8639 0.168379 4.99638 0.207977H5.00433C6.13666 0.168695 6.70512 1.13886 7.14882 2.05168C7.51104 2.79661 8.16767 5.17029 8.31154 5.69727C8.29053 5.72642 8.28194 5.7619 8.29117 5.79658C8.30136 5.83476 8.3308 5.8639 8.36883 5.87895C8.34464 5.91475 8.33493 5.95941 8.34576 6.00424L8.37488 6.12493C8.3569 6.11986 8.337 6.12066 8.31886 6.12905C8.28035 6.14695 8.26427 6.1913 8.28305 6.22821L8.3335 6.32752C8.35212 6.36443 8.39859 6.37963 8.43695 6.36173C8.45605 6.35286 8.46973 6.33734 8.47626 6.31944C8.49392 6.32942 8.51334 6.33686 8.53403 6.34019L8.61264 6.61168C8.5953 6.79225 8.7059 6.81601 8.7059 6.81601C8.7059 6.81601 8.75699 6.82852 8.82447 6.82947L8.89513 7.2462C8.88558 7.25064 8.87619 7.25523 8.86696 7.26062C8.72516 7.34203 8.55408 7.44182 8.38156 7.5462H8.38125Z" fill="#1E1E1E"/>
</svg>
