<svg width="27" height="27" viewBox="0 0 27 27" fill="none" xmlns="http://www.w3.org/2000/svg">
<path d="M25.4125 13.375C25.4125 6.72687 20.0231 1.3375 13.375 1.3375C6.72687 1.3375 1.3375 6.72687 1.3375 13.375C1.3375 20.0231 6.72687 25.4125 13.375 25.4125V26.75C5.98819 26.75 0 20.7618 0 13.375C0 5.98819 5.98819 0 13.375 0C20.7618 0 26.75 5.98819 26.75 13.375C26.75 20.7618 20.7618 26.75 13.375 26.75V25.4125C20.0231 25.4125 25.4125 20.0231 25.4125 13.375Z" fill="black"/>
<path d="M19.7277 12.7063V14.0438H7.02148V12.7063H19.7277Z" fill="black"/>
<path d="M12.7051 7.0219L14.0426 7.0219L14.0426 19.7281L12.7051 19.7281L12.7051 7.0219Z" fill="black"/>
</svg>
